# Blender v2.79 (sub 0) OBJ File: 'corner.blend'
# www.blender.org
o Plane.001
v 0.000000 -0.500000 -0.000000
v 0.500000 -0.500000 -0.000000
v 0.000000 0.500000 0.000000
v 0.500000 0.500000 0.000000
vt 0.500071 0.000071
vt 1.000000 0.000071
vt 1.000000 0.999929
vt 0.500071 0.999929
vn 0.0000 -0.0000 1.0000
s off
f 1/1/1 2/2/1 4/3/1 3/4/1
o Plane
v 0.000000 0.500000 0.500000
v -0.000000 -0.500000 0.500000
v 0.000000 0.500000 0.000000
v -0.000000 -0.500000 0.000000
vt 0.000071 0.999929
vt 0.000071 0.000071
vt 0.500000 0.000071
vt 0.500000 0.999929
vn 1.0000 -0.0000 0.0000
s off
f 5/5/2 6/6/2 8/7/2 7/8/2
